# Blender 4.3.2
# www.blender.org
o path263
v -0.485610 -0.444630 1.300920
v -0.521640 -0.444630 1.298550
v -0.775500 -0.444630 1.259340
v -1.003410 -0.444630 1.160490
v -1.050960 -0.444630 1.123110
v -1.061280 -0.444630 1.118070
v -1.142400 -0.444630 1.036770
v -1.207230 -0.444630 0.943230
v -1.293720 -0.444630 0.730560
v -1.331820 -0.444630 0.502440
v -1.297440 -0.444630 -0.738660
v -1.244700 -0.444630 -0.896490
v -1.184880 -0.444630 -1.006080
v -1.074300 -0.444630 -1.131720
v -0.934950 -0.444630 -1.224720
v -0.707760 -0.444630 -1.299750
v 1.071750 -0.444630 -1.314150
v 1.360200 -0.444630 -1.246980
v 1.585530 -0.444630 -1.119120
v 1.698360 -0.444630 -0.989100
v 1.755450 -0.444630 -0.879600
v -0.468360 -0.444630 -0.874620
v -0.646590 -0.444630 -0.832830
v -0.712890 -0.444630 -0.795150
v -0.753750 -0.444630 -0.757680
v -0.794460 -0.444630 -0.688470
v -0.823410 -0.444630 -0.564540
v -0.819630 -0.444630 0.569700
v -0.805800 -0.444630 0.631260
v -0.789450 -0.444630 0.669510
v -0.742230 -0.444630 0.737760
v -0.696330 -0.444630 0.780210
v -0.538410 -0.444630 0.837270
v 1.763850 -0.444630 0.856380
v 1.681830 -0.444630 1.017690
v 1.615410 -0.444630 1.094490
v 1.508280 -0.444630 1.178430
v 1.417650 -0.444630 1.224480
v 1.130520 -0.444630 1.292880
v -0.485610 -0.444630 1.300920
v -0.485610 -0.444630 1.300920
v -0.485610 -0.444630 1.300920
v -0.485610 -0.444630 1.300920
v -0.485610 -0.444630 1.300920
v -0.485610 -0.444630 1.300920
v -0.485610 -0.444630 1.300920
v -0.485610 -0.444630 1.300920
v -0.485610 -0.444630 1.300920
v -0.485610 -0.444630 1.300920
v -0.485610 -0.444630 1.300920
v -0.485610 -0.444630 1.300920
v 0.106980 -0.444630 -0.237870
v 1.768170 -0.444630 -0.237870
v 1.768170 -0.444630 0.211620
v 0.106980 -0.444630 0.211620
v -0.485610 0.444630 1.300920
v -0.521640 0.444630 1.298550
v -0.775500 0.444630 1.259340
v -1.003410 0.444630 1.160490
v -1.050960 0.444630 1.123110
v -1.061280 0.444630 1.118070
v -1.142400 0.444630 1.036770
v -1.207230 0.444630 0.943230
v -1.293720 0.444630 0.730560
v -1.331820 0.444630 0.502440
v -1.297440 0.444630 -0.738660
v -1.244700 0.444630 -0.896490
v -1.184880 0.444630 -1.006080
v -1.074300 0.444630 -1.131720
v -0.934950 0.444630 -1.224720
v -0.707760 0.444630 -1.299750
v 1.071750 0.444630 -1.314150
v 1.360200 0.444630 -1.246980
v 1.585530 0.444630 -1.119120
v 1.698360 0.444630 -0.989100
v 1.755450 0.444630 -0.879600
v -0.468360 0.444630 -0.874620
v -0.646590 0.444630 -0.832830
v -0.712890 0.444630 -0.795150
v -0.753750 0.444630 -0.757680
v -0.794460 0.444630 -0.688470
v -0.823410 0.444630 -0.564540
v -0.819630 0.444630 0.569700
v -0.805800 0.444630 0.631260
v -0.789450 0.444630 0.669510
v -0.742230 0.444630 0.737760
v -0.696330 0.444630 0.780210
v -0.538410 0.444630 0.837270
v 1.763850 0.444630 0.856380
v 1.681830 0.444630 1.017690
v 1.615410 0.444630 1.094490
v 1.508280 0.444630 1.178430
v 1.417650 0.444630 1.224480
v 1.130520 0.444630 1.292880
v -0.485610 0.444630 1.300920
v -0.485610 0.444630 1.300920
v -0.485610 0.444630 1.300920
v -0.485610 0.444630 1.300920
v -0.485610 0.444630 1.300920
v -0.485610 0.444630 1.300920
v -0.485610 0.444630 1.300920
v -0.485610 0.444630 1.300920
v -0.485610 0.444630 1.300920
v -0.485610 0.444630 1.300920
v -0.485610 0.444630 1.300920
v -0.485610 0.444630 1.300920
v 0.106980 0.444630 -0.237870
v 1.768170 0.444630 -0.237870
v 1.768170 0.444630 0.211620
v 0.106980 0.444630 0.211620
s 1
f 76 20 75
f 89 33 88
f 17 71 72
f 79 25 24
f 91 37 36
f 62 8 7
f 29 30 8
s 0
f 1 2 51
f 51 2 50
f 50 2 49
f 49 2 48
f 48 2 47
f 47 2 46
f 46 2 45
f 45 2 44
f 44 2 43
f 43 2 42
f 42 2 41
f 41 2 40
s 1
f 2 1 56
f 73 17 72
f 81 27 26
f 94 38 93
f 88 32 87
f 16 70 71
f 87 31 86
f 75 19 74
s 0
f 56 106 57
f 106 105 57
f 105 104 57
f 104 103 57
f 103 102 57
f 102 101 57
f 101 100 57
f 100 99 57
f 99 98 57
f 98 97 57
f 97 96 57
f 96 95 57
s 1
f 35 89 90
f 60 4 59
f 107 109 108
f 59 3 58
f 22 76 77
f 15 69 70
f 78 22 77
f 74 18 73
f 11 65 66
f 14 68 69
f 64 10 9
f 81 25 80
f 83 29 28
s 0
f 1 106 56
f 51 105 106
f 49 105 50
s 1
f 67 11 66
s 0
f 49 103 104
f 47 103 48
s 1
f 91 35 90
s 0
f 47 101 102
f 46 100 101
f 44 100 45
s 1
f 61 7 6
s 0
f 44 98 99
f 42 98 43
f 42 96 97
f 41 95 96
s 1
f 38 92 93
f 109 53 108
f 94 40 39
f 64 8 63
f 30 84 85
f 55 109 110
f 63 85 84
f 61 5 60
f 79 23 78
f 86 30 85
f 68 12 67
f 52 54 55
f 28 82 83
f 108 52 107
s 0
f 1 51 106
f 51 50 105
f 49 104 105
f 49 48 103
f 47 102 103
f 47 46 101
f 46 45 100
f 44 99 100
f 44 43 98
f 42 97 98
f 42 41 96
f 41 40 95
s 1
f 110 52 55
f 76 21 20
f 89 34 33
f 17 16 71
f 79 80 25
f 91 92 37
f 62 63 8
f 33 34 39
f 34 35 36
f 39 34 38
f 36 37 34
f 37 38 34
f 39 40 33
f 40 2 33
f 2 3 33
f 3 4 32
f 33 3 32
f 5 6 7
f 4 5 32
f 5 7 31
f 7 8 31
f 8 9 29
f 29 9 28
f 9 10 28
f 10 11 27
f 11 12 26
f 12 13 26
f 11 26 27
f 13 14 25
f 14 15 24
f 13 25 26
f 15 16 23
f 16 17 22
f 17 18 21
f 18 19 21
f 19 20 21
f 21 22 17
f 16 22 23
f 10 27 28
f 32 5 31
f 30 31 8
f 15 23 24
f 24 25 14
f 56 57 2
f 57 58 2
f 58 3 2
f 73 18 17
f 81 82 27
f 94 39 38
f 88 33 32
f 16 15 70
f 87 32 31
f 75 20 19
f 35 34 89
f 60 5 4
f 107 110 109
f 59 4 3
f 22 21 76
f 15 14 69
f 78 23 22
f 74 19 18
f 11 10 65
f 14 13 68
f 64 65 10
f 81 26 25
f 83 84 29
f 67 12 11
f 91 36 35
f 61 62 7
f 38 37 92
f 109 54 53
f 94 95 40
f 64 9 8
f 30 29 84
f 55 54 109
f 77 76 72
f 76 75 74
f 72 76 73
f 74 73 76
f 72 71 77
f 71 70 78
f 70 69 79
f 79 69 80
f 69 68 80
f 68 67 81
f 67 66 81
f 66 65 82
f 81 66 82
f 65 64 83
f 64 63 84
f 83 64 84
f 63 62 86
f 62 61 60
f 60 59 87
f 59 58 87
f 62 60 86
f 68 81 80
f 58 57 88
f 57 95 88
f 95 94 88
f 94 93 89
f 88 94 89
f 93 92 89
f 92 91 89
f 91 90 89
f 60 87 86
f 78 77 71
f 79 78 70
f 58 88 87
f 82 65 83
f 63 86 85
f 61 6 5
f 79 24 23
f 86 31 30
f 68 13 12
f 52 53 54
f 28 27 82
f 108 53 52
f 110 107 52
