# Blender 4.0.0
# www.blender.org
mtllib hammer.mtl
o hamLo
v 0.000000 5.874043 -0.645404
v 0.000000 5.864981 -0.023668
v -0.451110 5.709765 0.009597
v -0.155538 5.663654 -1.105965
v 0.440684 5.671120 -0.767528
v 0.174721 5.687347 0.409082
v -0.691904 -15.120607 -0.333250
v -0.559954 -14.904274 -1.341621
v 0.282059 -14.975366 -1.605852
v 0.731718 -14.939799 0.380367
v -0.221228 3.508626 0.580959
v -0.000000 -14.914122 1.059441
v 0.475084 3.477920 0.473034
v 0.618864 3.496777 -0.342758
v 0.480325 3.481898 -1.131082
v -0.000000 3.479872 -1.430328
v -0.592068 3.494916 -0.982084
v -0.610513 -14.753058 0.766483
v 0.981761 3.771847 5.974969
v -0.807215 5.418103 -3.901358
v -0.862296 3.593362 -3.846277
v -0.924716 3.585515 6.028363
v -0.885389 5.434163 1.098007
v 0.720119 3.438533 5.834157
v 0.862296 5.418103 -3.846277
v 0.807215 3.593362 -3.901358
v 0.881203 5.442300 0.975581
vn -0.1191 -0.9675 -0.2232
vn -0.1201 -0.9642 -0.2363
vn -0.1189 -0.9662 -0.2286
vn 0.1510 -0.9884 0.0158
vn 0.1610 -0.9869 0.0050
vn 0.1568 -0.9876 0.0107
vn 0.0516 -0.9887 0.1408
vn 0.0448 -0.9898 0.1353
vn 0.0485 -0.9892 0.1386
vn -0.4286 0.0183 0.9033
vn -0.9974 0.0078 0.0712
vn -0.6033 0.0145 -0.7974
vn 0.9849 -0.0008 -0.1731
vn 0.9847 0.0128 0.1738
vn -0.5486 0.8083 -0.2137
vn -0.5501 0.8072 -0.2140
vn -0.5503 0.8071 -0.2141
vn -0.5956 -0.5660 -0.5700
vn -0.7010 0.6870 0.1917
vn -0.5643 0.5563 -0.6100
vn 0.5612 -0.5690 -0.6011
vn 0.5979 0.5531 -0.5802
vn -0.0383 0.9966 -0.0726
vn 0.3447 0.9385 -0.0195
vn 0.6761 0.2030 0.7083
vn 0.6952 0.6968 0.1763
vn -0.0096 -0.9993 -0.0353
vn -0.2350 -0.9720 -0.0083
vn 0.3347 -0.8441 0.4189
vn 0.1041 0.9720 0.2108
vn -0.3848 0.9213 0.0562
vn -0.0296 -0.9995 0.0057
vn 0.0323 -0.9994 -0.0088
vn 0.1543 0.0275 0.9876
vn -0.9728 0.0231 0.2306
vn -0.9916 0.0008 -0.1296
vn -0.2991 0.0045 -0.9542
vn 0.5287 0.0162 -0.8487
vn 0.9753 -0.0048 -0.2207
vn 0.6803 0.0058 0.7329
vn -0.3804 -0.8193 0.4290
vn -0.3519 -0.8316 0.4296
vn -0.4187 -0.8072 0.4161
vn 0.2287 0.8413 -0.4898
vn 0.2293 0.8407 -0.4906
vn 0.2284 0.8417 -0.4892
vn -0.3441 0.9385 0.0279
vn -0.3424 0.9391 0.0302
vn -0.3423 0.9391 0.0303
vn -0.2309 0.8507 0.4722
vn -0.2312 0.8504 0.4727
vn -0.2316 0.8500 0.4732
vn 0.4422 0.8969 0.0032
vn 0.4420 0.8970 0.0027
vn 0.4427 0.8967 0.0045
vn 0.5655 0.8191 0.0969
vn 0.5640 0.8202 0.0959
vn 0.5669 0.8179 0.0983
vn -0.6375 -0.1342 0.7587
vn 0.2347 -0.9720 -0.0133
vn 0.1493 -0.9885 -0.0222
vt 0.092225 0.952325
vt 0.039982 0.902153
vt 0.070568 0.851255
vt 0.184066 0.914873
vt 0.182412 0.973497
vt 0.989317 0.220794
vt 0.005367 0.257734
vt 0.002899 0.221157
vt 0.000177 0.313339
vt 0.997410 0.305621
vt 0.992294 0.079843
vt 0.000804 0.000168
vt 0.996752 0.054419
vt 0.000268 0.166384
vt 0.990295 0.105603
vt 0.989462 0.144858
vt 0.986770 0.184104
vt 0.165439 0.793837
vt 0.064386 0.754828
vt 0.136967 0.755171
vt 0.979844 0.523511
vt 0.596725 0.682947
vt 0.984446 0.670277
vt 0.120437 0.625047
vt 0.128613 0.430965
vt 0.227489 0.524457
vt 0.766359 0.730502
vt 0.755396 0.776243
vt 0.984470 0.826992
vt 0.211941 0.842573
vt 0.599022 0.810014
vt 0.764563 0.428531
vt 0.731317 0.466104
vt 0.984899 0.503495
vt 0.979443 0.972717
vt 0.201245 0.883622
vt 0.664227 0.759636
vt 0.682338 0.721448
vt 0.633838 0.440841
vt 0.629994 0.401072
vt 0.230399 0.380479
vt 0.000206 0.368899
vt 0.000599 0.051924
vt 0.141475 0.994317
vt 0.178251 0.728939
vt 0.096975 0.727172
vt 0.071414 0.690233
vt 0.210074 0.644063
vt 0.021561 0.531554
vt 0.984899 0.352970
vt 0.683910 0.384216
vt 0.743936 0.392768
vt 0.231292 0.480333
vt 0.371058 0.497501
vt 0.385731 0.534553
vt 0.259598 0.522677
s 0
usemtl none
f 7/1/1 8/2/2 9/3/3
f 7/1/4 9/3/5 10/4/6
f 7/1/7 10/4/8 12/5/9
f 11/6/10 18/7/10 12/8/10
f 7/9/11 18/7/11 17/10/11
f 16/11/12 8/12/12 17/13/12
f 10/14/13 15/15/13 14/16/13
f 13/17/14 10/14/14 14/16/14
f 4/18/15 3/19/16 1/20/17
s 1
f 21/21/18 23/22/19 20/23/20
f 26/24/21 20/25/20 25/26/22
f 4/27/23 5/28/24 25/29/22
f 19/30/25 25/29/22 27/31/26
f 16/32/27 17/33/28 21/34/18
f 26/35/21 19/30/25 24/36/29
f 23/22/19 19/30/25 27/31/26
f 6/37/30 3/38/31 23/22/19
f 11/39/32 13/40/33 24/41/29
s 0
f 11/6/34 12/8/34 13/17/34
f 17/10/35 18/7/35 11/6/35
f 17/10/36 8/42/36 7/9/36
f 16/11/37 9/43/37 8/12/37
f 16/11/38 15/15/38 9/43/38
f 10/14/39 9/43/39 15/15/39
f 12/8/40 10/14/40 13/17/40
f 18/44/41 7/1/42 12/5/43
f 4/18/44 1/20/45 5/45/46
f 2/46/47 1/20/48 3/19/49
f 6/47/50 2/46/51 3/19/52
f 5/45/53 1/20/54 2/46/55
f 5/45/56 2/46/57 6/47/58
s 1
f 21/21/18 22/48/59 23/22/19
f 26/24/21 21/49/18 20/25/20
f 20/23/20 23/22/19 3/38/31
f 20/23/20 3/38/31 4/27/23
f 5/28/24 27/31/26 25/29/22
f 25/29/22 20/23/20 4/27/23
f 19/30/25 26/35/21 25/29/22
f 26/50/21 24/41/29 14/51/60
f 26/50/21 14/51/60 15/52/61
f 17/33/28 22/53/59 21/34/18
f 21/34/18 26/50/21 16/32/27
f 26/50/21 15/52/61 16/32/27
f 24/54/29 19/55/25 22/56/59
f 23/22/19 22/48/59 19/30/25
f 27/31/26 5/28/24 6/37/30
f 27/31/26 6/37/30 23/22/19
f 22/53/59 17/33/28 11/39/32
f 13/40/33 14/51/60 24/41/29
f 24/41/29 22/53/59 11/39/32
