# Blender 4.0.0
# www.blender.org
mtllib pikachu.mtl
o Plane.001
v -0.341951 0.834098 0.604295
v -0.341951 0.223503 0.707980
v -0.341951 -0.065468 0.728760
v -0.341951 -0.419043 0.329176
v -0.341951 1.272165 -0.013245
v -0.341951 1.243596 -0.488997
v -0.341951 0.964297 -0.848211
v -0.341951 0.388403 -0.940208
v -0.341951 -0.070887 -0.870608
v -0.332093 -1.534739 -1.727464
v -0.341951 -1.849380 0.381862
v 0.484233 -2.595376 -0.967762
v -0.341951 -2.276489 0.200168
v 0.387348 -2.405426 -0.207273
v -0.341951 -2.102651 -1.466548
v 0.451841 -2.382124 -1.006195
v 0.376421 -2.626434 0.092326
v 0.757906 -2.592276 -0.856665
v 0.476233 -0.154412 -0.615611
v 0.480845 0.991420 -0.474019
v 0.843604 -1.560914 -0.833737
v 0.542494 0.152231 -0.584841
v 0.395074 -1.657245 -0.290638
v 0.284643 -0.336969 -0.213500
v 0.361453 0.053778 -0.148815
v 0.054610 1.122047 -0.140102
v 0.136630 1.155845 -0.472293
v 1.804985 1.716396 -0.424756
v 1.738681 1.648475 -0.072276
v 0.814045 1.584360 -0.426086
v 0.456606 1.403229 -0.104907
v 0.346937 0.928427 -0.124484
v -0.222154 -1.401196 -1.457113
v 0.542186 -0.406917 -0.654770
v 0.197556 -0.619010 -0.227348
v -0.017688 -0.893307 0.220637
v -0.103552 -1.219506 0.509202
v 0.172643 -1.419600 0.184378
v 0.430837 -1.108668 -0.268787
v 0.544193 -0.869809 -0.519582
v -0.010073 -1.431396 0.532380
v 0.320568 -0.914873 -0.030996
v -1.168135 -2.595376 -0.967762
v -1.071249 -2.405426 -0.207273
v -1.135743 -2.382124 -1.006195
v -1.060323 -2.626434 0.092326
v -1.441808 -2.592276 -0.856665
v -1.160135 -0.154412 -0.615611
v -1.164747 0.991420 -0.474019
v -1.527506 -1.560914 -0.833737
v -1.226396 0.152231 -0.584841
v -1.078976 -1.657245 -0.290638
v -0.968545 -0.336969 -0.213500
v -1.045355 0.053778 -0.148815
v -0.738512 1.122047 -0.140102
v -0.820531 1.155845 -0.472293
v -2.488886 1.716396 -0.424756
v -2.422583 1.648475 -0.072276
v -1.497947 1.584360 -0.426086
v -1.140507 1.403229 -0.104907
v -1.030839 0.928427 -0.124484
v -0.473702 -1.389869 -1.531638
v -1.226088 -0.406917 -0.654770
v -0.881457 -0.619010 -0.227348
v -0.666214 -0.893307 0.220637
v -0.580350 -1.219506 0.509202
v -0.856545 -1.419600 0.184378
v -1.114738 -1.108668 -0.268787
v -1.228095 -0.869809 -0.519582
v -0.673829 -1.431396 0.532380
v -1.004470 -0.914873 -0.030996
v -0.222154 0.731657 -2.532280
v -0.246756 -0.093531 -2.657803
v -0.471310 0.747270 -2.608437
v -0.474569 -0.073091 -2.676002
v -0.216141 -1.562459 -1.626012
v -0.476396 -1.235227 -1.693951
v -0.222154 -1.253502 -1.614654
v -0.467783 -1.541817 -1.690791
v -0.477141 -0.942903 -1.648096
v -0.222154 -0.954995 -1.573986
v -0.214270 -1.148080 -1.804154
v -0.460892 -1.152711 -1.865674
v -0.231375 -1.042785 -2.081232
v -0.479712 -0.836595 -1.795113
v -0.222154 -0.849946 -1.720767
v -0.474569 -1.022659 -2.104131
v -0.228687 -0.446334 -1.988174
v -0.228955 0.041644 -1.324069
v -0.482893 0.043574 -1.373746
v -0.474569 -0.422679 -2.001864
vn 0.7787 0.1050 0.6185
vn 0.7765 0.0452 0.6285
vn 0.4519 0.7242 0.5209
vn 0.6902 -0.5419 0.4795
vn 0.6856 -0.2850 0.6699
vn 0.8732 0.0451 0.4853
vn 0.8105 -0.2756 0.5168
vn 0.9146 -0.2343 0.3294
vn 0.9232 0.0046 0.3844
vn 0.1737 0.9745 0.1420
vn 0.4302 -0.0157 -0.9026
vn 0.4530 0.6528 -0.6072
vn 0.3003 0.0308 -0.9534
vn 0.4057 0.1442 -0.9026
vn 0.3012 0.6381 -0.7086
vn 0.8309 0.4328 0.3496
vn 0.0223 -0.9994 -0.0270
vn -0.3045 -0.9511 -0.0523
vn -0.9904 -0.0912 -0.1034
vn -0.1305 0.9778 0.1639
vn 0.4590 -0.8883 0.0158
vn -0.0102 0.0862 -0.9962
vn -0.0698 -0.0250 0.9972
vn -0.5260 0.8434 -0.1098
vn 0.7576 0.1049 0.6443
vn 0.6699 0.0273 0.7420
vn 0.8974 0.1273 0.4225
vn 0.4348 0.6164 0.6565
vn 0.5583 0.4218 0.7144
vn 0.8845 -0.0620 0.4623
vn -0.7787 0.1050 0.6185
vn -0.7765 0.0452 0.6285
vn -0.4519 0.7242 0.5209
vn -0.6527 -0.2469 0.7163
vn -0.4979 0.0910 0.8624
vn -0.7755 -0.0784 0.6265
vn -0.8640 0.1512 0.4803
vn -0.9146 -0.2343 0.3294
vn -0.9324 0.0208 0.3609
vn -0.3376 0.9396 -0.0564
vn -0.6217 -0.1345 -0.7717
vn -0.5618 0.2681 -0.7826
vn -0.4057 0.1442 -0.9026
vn -0.3012 0.6381 -0.7086
vn -0.0223 -0.9994 -0.0270
vn 0.3045 -0.9511 -0.0523
vn 0.9904 -0.0912 -0.1034
vn 0.1860 0.9299 0.3175
vn -0.4590 -0.8883 0.0158
vn -0.0264 0.0658 -0.9975
vn 0.0698 -0.0250 0.9972
vn 0.5689 0.8204 -0.0570
vn -0.7514 0.0950 0.6530
vn -0.6699 0.0273 0.7420
vn -0.8974 0.1273 0.4225
vn -0.4348 0.6164 0.6565
vn -0.6872 0.3715 0.6244
vn -0.8845 -0.0620 0.4623
vn -0.0966 0.8645 0.4932
vn 1.0000 -0.0040 0.0033
vn -1.0000 0.0038 0.0020
vn -0.0422 -0.8844 -0.4648
vn 0.9997 0.0188 0.0176
vn -0.1615 0.7132 0.6821
vn -0.2202 -0.3966 -0.8912
vn -0.9942 -0.0290 -0.1037
vn 0.9992 -0.0053 0.0386
vn -0.2825 -0.1494 0.9476
vn 0.5777 -0.3246 -0.7489
vn -0.0277 -0.8782 -0.4774
vn -0.9977 -0.0643 0.0221
vn 0.9996 0.0220 0.0158
vn -0.1266 0.8028 0.5827
vn 0.1070 -0.9272 -0.3590
vn 0.1052 0.1528 -0.9826
vn -0.9998 0.0032 -0.0185
vn 0.9999 0.0111 -0.0077
vn -0.2738 -0.3927 0.8780
vn 0.2974 0.1349 -0.9452
vn 0.0866 0.0814 -0.9929
vn 0.7272 -0.0070 0.6864
vn 0.4428 0.7313 0.5188
vn 0.6527 -0.2469 0.7163
vn 0.6536 -0.2371 0.7188
vn 0.4979 0.0910 0.8624
vn 0.7755 -0.0784 0.6265
vn 0.8640 0.1512 0.4803
vn 0.9160 -0.2309 0.3282
vn 0.9324 0.0208 0.3609
vn 0.3376 0.9396 -0.0564
vn 0.3784 -0.3420 -0.8601
vn 0.5673 -0.3519 -0.7445
vn 0.5948 -0.1167 -0.7954
vn 0.2761 0.4084 -0.8700
vn 0.3108 0.2244 -0.9236
vn 0.3588 0.4034 -0.8417
vn 0.5162 0.2613 -0.8156
vn 0.3364 -0.1411 -0.9311
vn 0.4026 0.1489 -0.9032
vn 0.1639 0.7788 -0.6055
vn 0.3750 -0.1090 -0.9206
vn -0.2277 -0.9685 -0.1010
vn -0.9828 -0.1644 -0.0841
vn -0.1860 0.9299 0.3175
vn 0.4810 -0.8733 -0.0778
vn -0.0184 -0.0370 0.9991
vn 0.0264 0.0658 -0.9975
vn -0.5689 0.8204 -0.0570
vn 0.7514 0.0950 0.6530
vn 0.7319 0.0981 0.6743
vn 0.9091 0.0060 0.4166
vn 0.4960 0.6138 0.6142
vn 0.6872 0.3715 0.6244
vn 0.8850 -0.0625 0.4613
vn -0.7272 -0.0070 0.6864
vn -0.4428 0.7313 0.5188
vn -0.6902 -0.5419 0.4795
vn -0.6536 -0.2371 0.7188
vn -0.6856 -0.2850 0.6699
vn -0.8732 0.0451 0.4853
vn -0.8105 -0.2756 0.5168
vn -0.9160 -0.2309 0.3282
vn -0.9232 0.0046 0.3844
vn -0.1737 0.9745 0.1420
vn -0.2189 -0.4042 -0.8881
vn -0.3431 -0.4141 -0.8431
vn -0.4302 -0.0157 -0.9026
vn -0.3108 0.2244 -0.9236
vn -0.5020 0.6162 -0.6069
vn -0.3685 0.4457 -0.8158
vn -0.3364 -0.1411 -0.9311
vn -0.3003 0.0308 -0.9534
vn -0.4026 0.1489 -0.9032
vn -0.1639 0.7788 -0.6055
vn -0.8309 0.4328 0.3496
vn -0.3750 -0.1090 -0.9206
vn 0.2277 -0.9685 -0.1010
vn 0.9828 -0.1644 -0.0841
vn 0.1305 0.9778 0.1639
vn -0.4810 -0.8733 -0.0778
vn 0.0184 -0.0370 0.9991
vn 0.0102 0.0862 -0.9962
vn 0.5260 0.8434 -0.1098
vn -0.7576 0.1049 0.6443
vn -0.7319 0.0981 0.6743
vn -0.9091 0.0060 0.4166
vn -0.4960 0.6138 0.6142
vn -0.5583 0.4218 0.7144
vn -0.8850 -0.0625 0.4613
vn -0.0898 0.8657 0.4925
vn 0.9989 -0.0238 -0.0395
vn -0.9999 -0.0029 -0.0111
vn -0.0597 -0.8862 -0.4595
vn -0.9996 -0.0282 -0.0103
vn -0.1674 0.7192 0.6743
vn -0.9963 0.0108 -0.0848
vn 0.9985 0.0175 0.0513
vn -0.3037 -0.1286 0.9440
vn 0.2384 -0.2583 -0.9362
vn -0.9983 -0.0545 -0.0220
vn 0.9981 0.0394 -0.0466
vn -0.1295 0.8063 0.5771
vn 0.0709 0.1676 -0.9833
vn -0.9999 0.0042 -0.0164
vn 0.9997 -0.0006 -0.0253
vn -0.1769 -0.4255 0.8875
s 0
usemtl Material.001
f 25//1 1//1 2//1
f 3//2 25//2 2//2
f 1//3 32//3 26//3
f 4//4 25//4 3//4
f 13//5 23//5 11//5
f 18//6 23//6 14//6
f 34//7 24//7 35//7
f 19//8 25//8 24//8
f 22//9 32//9 25//9
f 6//10 26//10 27//10
f 21//11 18//11 16//11
f 21//12 76//12 33//12
f 9//13 22//13 19//13
f 20//14 8//14 7//14
f 27//15 20//15 7//15
f 18//16 14//16 17//16
f 17//17 12//17 18//17
f 14//18 15//18 16//18
f 14//19 12//19 17//19
f 30//20 29//20 28//20
f 20//21 29//21 32//21
f 20//22 30//22 28//22
f 32//23 31//23 26//23
f 27//24 31//24 30//24
f 21//25 35//25 23//25
f 23//26 4//26 11//26
f 42//27 40//27 34//27
f 42//28 34//28 35//28
f 36//29 41//29 42//29
f 38//30 42//30 41//30
f 1//31 54//31 2//31
f 54//32 3//32 2//32
f 1//33 55//33 61//33
f 4//34 54//34 53//34
f 13//35 52//35 44//35
f 47//36 52//36 50//36
f 63//37 53//37 48//37
f 54//38 48//38 53//38
f 51//39 61//39 49//39
f 6//40 55//40 5//40
f 50//41 79//41 45//41
f 50//42 63//42 62//42
f 8//43 49//43 7//43
f 7//44 49//44 56//44
f 46//45 47//45 43//45
f 15//46 44//46 45//46
f 43//47 44//47 46//47
f 59//48 58//48 60//48
f 58//49 49//49 61//49
f 49//50 59//50 56//50
f 60//51 61//51 55//51
f 56//52 60//52 55//52
f 50//53 64//53 63//53
f 4//54 52//54 11//54
f 69//55 71//55 63//55
f 71//56 64//56 63//56
f 70//57 66//57 65//57
f 71//58 67//58 70//58
f 89//59 72//59 74//59
f 88//60 72//60 89//60
f 91//61 74//61 75//61
f 88//62 75//62 73//62
f 33//63 76//63 78//63
f 62//64 78//64 77//64
f 79//65 83//65 10//65
f 77//66 83//66 79//66
f 78//67 82//67 81//67
f 77//68 81//68 80//68
f 10//69 82//69 76//69
f 83//70 87//70 84//70
f 83//71 85//71 87//71
f 82//72 86//72 81//72
f 80//73 86//73 85//73
f 83//74 84//74 82//74
f 87//75 88//75 84//75
f 85//76 91//76 87//76
f 86//77 88//77 89//77
f 86//78 89//78 85//78
f 73//79 74//79 72//79
f 75//80 74//80 73//80
f 25//81 32//81 1//81
f 5//82 1//82 26//82
f 4//83 24//83 25//83
f 35//84 24//84 4//84
f 13//85 14//85 23//85
f 18//86 21//86 23//86
f 34//87 19//87 24//87
f 19//88 22//88 25//88
f 22//89 20//89 32//89
f 6//90 5//90 26//90
f 16//91 15//91 76//91
f 15//92 10//92 76//92
f 76//93 21//93 16//93
f 62//94 9//94 33//94
f 9//95 19//95 34//95
f 33//96 9//96 34//96
f 34//97 21//97 33//97
f 9//98 8//98 22//98
f 20//99 22//99 8//99
f 7//100 6//100 27//100
f 12//101 16//101 18//101
f 14//102 13//102 15//102
f 14//103 16//103 12//103
f 30//104 31//104 29//104
f 20//105 28//105 29//105
f 32//106 29//106 31//106
f 20//107 27//107 30//107
f 27//108 26//108 31//108
f 21//109 34//109 35//109
f 23//110 35//110 4//110
f 42//111 39//111 40//111
f 42//112 35//112 36//112
f 36//113 37//113 41//113
f 38//114 39//114 42//114
f 1//115 61//115 54//115
f 1//116 5//116 55//116
f 4//117 3//117 54//117
f 4//118 53//118 64//118
f 13//119 11//119 52//119
f 47//120 44//120 52//120
f 63//121 64//121 53//121
f 54//122 51//122 48//122
f 51//123 54//123 61//123
f 6//124 56//124 55//124
f 10//125 15//125 79//125
f 15//126 45//126 79//126
f 45//127 47//127 50//127
f 48//128 9//128 63//128
f 62//129 79//129 50//129
f 9//130 62//130 63//130
f 51//131 8//131 9//131
f 9//132 48//132 51//132
f 8//133 51//133 49//133
f 6//134 7//134 56//134
f 47//135 46//135 44//135
f 47//136 45//136 43//136
f 15//137 13//137 44//137
f 43//138 45//138 44//138
f 59//139 57//139 58//139
f 58//140 57//140 49//140
f 60//141 58//141 61//141
f 49//142 57//142 59//142
f 56//143 59//143 60//143
f 50//144 52//144 64//144
f 4//145 64//145 52//145
f 69//146 68//146 71//146
f 65//147 64//147 71//147
f 71//148 70//148 65//148
f 71//149 68//149 67//149
f 90//150 89//150 74//150
f 88//151 73//151 72//151
f 91//152 90//152 74//152
f 88//153 91//153 75//153
f 62//154 77//154 79//154
f 62//155 33//155 78//155
f 77//156 80//156 83//156
f 78//157 76//157 82//157
f 77//158 78//158 81//158
f 10//159 83//159 82//159
f 83//160 80//160 85//160
f 82//161 84//161 86//161
f 80//162 81//162 86//162
f 87//163 91//163 88//163
f 85//164 90//164 91//164
f 86//165 84//165 88//165
f 85//166 89//166 90//166
