# Blender 4.5.3 LTS
# www.blender.org
mtllib earth035.mtl
o Earth
v 0.000000 0.000000 -42.720402
v -7.369964 -4.612092 -41.963192
v -6.518061 5.675105 -41.935841
v 4.335369 7.548823 -42.004238
v 8.354668 -1.907362 -41.918766
v 2.266727 -8.339893 -41.935848
v 2.974620 -16.281195 -39.644207
v -11.884604 -11.518903 -39.644180
v -16.462168 0.200644 -39.507740
v -11.518907 11.884585 -39.644169
v -1.469382 16.324963 -39.483273
v 9.409122 13.615901 -39.644230
v 16.184994 3.014374 -39.507767
v 14.466873 -7.999273 -39.555740
v -1.463627 -26.549850 -33.756081
v -13.409449 -19.700657 -35.658035
v -22.862993 -6.679387 -35.840973
v -21.938225 9.308228 -35.658031
v -13.069551 19.927711 -35.658073
v 2.578052 23.678820 -35.840958
v 16.995325 16.705879 -35.658085
v 23.412382 4.448182 -35.658077
v 22.713425 -7.034320 -35.567421
v 16.705837 -16.995264 -35.658131
v 6.770192 -22.793505 -35.567421
v -11.774656 -27.919146 -30.498226
v -24.523075 -21.544815 -27.997576
v -29.755585 -5.720691 -30.498262
v -31.798340 9.831617 -27.296890
v -27.489384 18.554457 -27.248051
v -20.976954 25.840923 -27.297071
v -10.520615 30.901424 -27.997196
v 4.444834 32.318581 -28.016577
v 15.846542 29.269085 -27.296965
v 24.523081 21.544987 -27.997452
v 29.755610 5.720576 -30.498238
v 31.538307 -8.420517 -27.997395
v 23.308405 -19.294432 -30.301680
v 11.416368 -28.067755 -30.498112
v -0.168204 -35.684643 -24.160057
v -18.681803 -32.506355 -21.128902
v -31.447769 -16.685886 -23.868015
v -35.439404 -3.381123 -23.868015
v -2.526443 37.407265 -21.128675
v 31.447905 16.685497 -23.868139
v 35.439392 3.380967 -23.868042
v 31.345055 -16.877886 -23.868097
v 22.500446 -27.588266 -23.868029
v 14.401025 -35.000381 -20.247871
v 3.801590 -39.416294 -16.485416
v -11.571300 -37.870857 -16.485369
v -30.661194 -25.059717 -16.485279
v -37.917206 -11.418621 -16.485289
v -40.789024 2.929466 -13.501727
v -39.418514 12.995295 -11.522386
v -30.559950 25.182972 -16.485428
v -22.779324 34.176231 -12.469229
v -11.418544 37.917168 -16.485424
v 11.571438 37.870872 -16.485331
v 25.183180 30.559923 -16.485352
v 34.176231 22.779327 -12.469224
v 37.917175 11.418496 -16.485428
v 40.789021 -2.929631 -13.501743
v 34.885685 -18.737383 -16.485319
v 25.059954 -30.661077 -16.485254
v 4.082261 -41.882427 -8.421820
v -12.255902 -40.256622 -8.421833
v -26.728312 -32.502350 -8.421720
v -35.525387 -23.719526 -4.210251
v -40.281151 -12.174945 -8.421942
v -32.502285 26.728371 -8.421757
v -12.174904 40.281178 -8.421863
v 3.125910 42.642548 -5.281700
v 13.464213 40.804405 -3.173328
v 26.290272 33.719116 -5.281854
v 40.281162 12.174952 -8.421817
v 40.256580 -12.256166 -8.421850
v 32.501942 -26.728779 -8.421937
v 19.799454 -37.132015 -8.421804
v 4.206777 -42.716393 -0.000079
v -12.460136 -41.074722 -0.000078
v -27.230158 -33.179951 -0.000145
v -41.074726 -12.460108 0.000116
v -42.716393 4.206871 0.000086
v -37.854782 20.233778 -0.000032
v -27.229986 33.179996 0.000068
v -12.459962 41.074749 0.000091
v 33.179970 27.230028 -0.000028
v 41.074753 12.459956 0.000052
v 42.850872 -3.176015 3.173242
v 40.592796 -13.430687 5.281857
v 33.179691 -27.230343 -0.000066
v 20.233591 -37.854824 -0.000049
v 4.166494 -41.874119 8.421880
v -12.175159 -40.281124 8.421875
v -26.662920 -32.555943 8.421975
v -34.124184 -22.857262 12.468974
v -40.256622 -12.255903 8.421833
v -41.882416 4.082402 8.421875
v -37.132076 19.799364 8.421834
v -26.728502 32.502190 8.421957
v -12.255898 40.256626 8.421825
v 4.082422 41.882412 8.421896
v 18.356544 36.579594 13.397478
v 26.663383 32.555653 8.421781
v 32.287350 25.097021 13.501606
v 40.256592 12.255943 8.421874
v 32.555573 -26.663439 8.421887
v 19.874037 -37.092121 8.421968
v 3.960443 -39.400734 16.485201
v -10.258972 -37.027386 19.422522
v -25.059727 -30.661169 16.485306
v -37.870857 -11.571302 16.485367
v -39.416286 3.801872 16.485418
v -34.960991 18.596302 16.485497
v -25.183123 30.560032 16.485279
v -12.041170 36.486675 19.422737
v 3.801997 39.416298 16.485394
v 37.870922 11.571198 16.485281
v 39.416290 -3.802022 16.485401
v 34.960972 -18.596590 16.485268
v 25.183302 -30.559765 16.485390
v 14.565709 -34.932152 20.247910
v 3.077944 -33.571110 26.734163
v -16.685881 -31.447771 23.868017
v -24.402088 -21.651142 28.016768
v -31.344975 -16.878031 23.868132
v -35.417934 -3.597942 23.868193
v -34.098812 10.229531 23.868225
v -28.255110 16.346975 27.997330
v -22.668592 27.450216 23.868034
v -3.597822 35.417976 23.868137
v 10.229529 34.098827 23.868206
v 16.346865 28.255110 27.997381
v 25.615263 21.252066 27.296982
v 34.035564 10.438386 23.868097
v 35.439411 -3.381261 23.868000
v 31.447760 -16.685724 23.868107
v 22.668831 -27.449984 23.868155
v -11.416013 -28.067722 30.498207
v -28.917719 -8.906042 30.301746
v -30.124699 2.837908 30.301815
v -18.905807 19.674166 33.350060
v -8.906169 28.917686 30.301737
v 2.837895 30.124697 30.301819
v 29.679968 6.101193 30.498190
v 26.202579 -7.684905 33.224602
v 23.471014 -19.096087 30.301805
v 11.774771 -27.919170 30.498213
v 4.849117 -23.332653 35.658070
v -8.930782 -22.094494 35.658081
v -20.889627 -11.443534 35.840961
v -23.412388 4.448533 35.658043
v -9.308315 21.938232 35.657997
v 4.448526 23.412392 35.658039
v 16.706511 16.994841 35.658020
v 23.332708 4.849075 35.658035
v 16.994867 -16.706442 35.658031
v -1.386071 -16.472898 39.555759
v -14.390363 -8.006269 39.792843
v -14.688345 7.584964 39.555733
v -1.889853 16.358866 39.792828
v 11.498610 11.782339 39.507751
v 16.548685 0.258445 39.644188
v 10.667974 -12.628275 39.555733
v -6.518063 -5.675119 41.935844
v -7.369979 4.612072 41.963196
v 5.194117 6.749842 42.140251
v 5.027751 -7.043162 42.062351
v 0.000000 0.000000 42.720402
vn -0.0007 -0.0002 -1.0000
vn 0.0478 -0.2019 -0.9782
vn -0.1702 -0.1096 -0.9793
vn -0.1508 0.1322 -0.9797
vn 0.0982 0.1728 -0.9800
vn 0.1990 -0.0401 -0.9792
vn 0.0562 -0.3779 -0.9241
vn -0.2700 -0.2809 -0.9210
vn -0.3876 0.0128 -0.9218
vn -0.2652 0.2848 -0.9212
vn -0.0792 0.4060 -0.9104
vn 0.2333 0.3205 -0.9181
vn 0.3784 0.0875 -0.9215
vn 0.3324 -0.1914 -0.9235
vn -0.0401 -0.6137 -0.7885
vn -0.3143 -0.4509 -0.8354
vn -0.5368 -0.1565 -0.8290
vn -0.5274 0.2128 -0.8225
vn -0.2985 0.4738 -0.8285
vn 0.0542 0.5565 -0.8290
vn 0.4060 0.3879 -0.8274
vn 0.5434 0.1144 -0.8317
vn 0.5456 -0.1599 -0.8227
vn 0.3846 -0.3995 -0.8321
vn 0.1701 -0.5249 -0.8340
vn -0.2764 -0.6629 -0.6958
vn -0.5621 -0.4963 -0.6616
vn -0.6861 -0.1178 -0.7179
vn -0.7504 0.2185 -0.6238
vn -0.6452 0.4305 -0.6312
vn -0.4861 0.6092 -0.6265
vn -0.2453 0.7158 -0.6538
vn 0.1033 0.7504 -0.6529
vn 0.3660 0.6808 -0.6344
vn 0.5780 0.4951 -0.6487
vn 0.6845 0.1415 -0.7151
vn 0.7422 -0.1880 -0.6433
vn 0.5462 -0.4499 -0.7066
vn 0.2707 -0.6594 -0.7013
vn -0.0143 -0.8246 -0.5655
vn -0.4364 -0.7589 -0.4834
vn -0.7401 -0.3783 -0.5560
vn -0.8337 -0.0659 -0.5483
vn -0.0472 0.8816 -0.4696
vn 0.7330 0.3974 -0.5521
vn 0.8355 0.0682 -0.5453
vn 0.7364 -0.3997 -0.5458
vn 0.5330 -0.6311 -0.5635
vn 0.3257 -0.8251 -0.4617
vn 0.0914 -0.9254 -0.3678
vn -0.2620 -0.8834 -0.3886
vn -0.7210 -0.5801 -0.3790
vn -0.8812 -0.2759 -0.3839
vn -0.9473 0.0524 -0.3160
vn -0.9063 0.3183 -0.2779
vn -0.7155 0.5684 -0.4061
vn -0.5220 0.7997 -0.2966
vn -0.2713 0.8792 -0.3916
vn 0.2780 0.8817 -0.3811
vn 0.5791 0.7146 -0.3924
vn 0.7961 0.5327 -0.2869
vn 0.8826 0.2588 -0.3925
vn 0.9471 -0.0635 -0.3145
vn 0.8164 -0.4303 -0.3853
vn 0.5987 -0.7081 -0.3743
vn 0.0954 -0.9760 -0.1958
vn -0.2857 -0.9382 -0.1955
vn -0.6010 -0.7715 -0.2089
vn -0.8315 -0.5488 -0.0857
vn -0.9404 -0.2750 -0.1999
vn -0.7645 0.6185 -0.1815
vn -0.2786 0.9410 -0.1920
vn 0.0437 0.9906 -0.1297
vn 0.3387 0.9388 -0.0625
vn 0.5914 0.7967 -0.1246
vn 0.9445 0.2753 -0.1794
vn 0.9339 -0.3042 -0.1881
vn 0.7577 -0.6234 -0.1930
vn 0.4531 -0.8697 -0.1956
vn 0.0980 -0.9952 -0.0000
vn -0.2903 -0.9569 -0.0000
vn -0.6244 -0.7810 0.0100
vn -0.9606 -0.2778 0.0100
vn -0.9958 0.0911 -0.0061
vn -0.8838 0.4678 0.0016
vn -0.6266 0.7794 -0.0003
vn -0.2946 0.9556 0.0055
vn 0.7964 0.6048 0.0020
vn 0.9551 0.2961 -0.0061
vn 0.9969 -0.0429 0.0655
vn 0.9352 -0.3331 0.1205
vn 0.7702 -0.6378 -0.0054
vn 0.4714 -0.8819 -0.0000
vn 0.0961 -0.9758 0.1964
vn -0.2839 -0.9370 0.2038
vn -0.6130 -0.7679 0.1857
vn -0.7965 -0.5384 0.2753
vn -0.9434 -0.2746 0.1858
vn -0.9761 0.0951 0.1955
vn -0.8654 0.4614 0.1955
vn -0.6221 0.7579 0.1964
vn -0.2845 0.9368 0.2038
vn 0.0836 0.9795 0.1833
vn 0.4321 0.8461 0.3121
vn 0.6051 0.7714 0.1969
vn 0.7473 0.5755 0.3322
vn 0.9382 0.2857 0.1954
vn 0.7522 -0.6284 0.1980
vn 0.4554 -0.8686 0.1955
vn 0.0863 -0.9223 0.3767
vn -0.2305 -0.8681 0.4396
vn -0.5749 -0.7163 0.3954
vn -0.8863 -0.2533 0.3877
vn -0.9212 0.0887 0.3789
vn -0.8109 0.4414 0.3843
vn -0.5926 0.7119 0.3768
vn -0.2903 0.8498 0.4399
vn 0.0769 0.9202 0.3837
vn 0.8831 0.2623 0.3891
vn 0.9231 -0.0814 0.3759
vn 0.8174 -0.4298 0.3837
vn 0.6014 -0.7059 0.3742
vn 0.3347 -0.8238 0.4576
vn 0.0476 -0.7772 0.6274
vn -0.4079 -0.7311 0.5469
vn -0.5551 -0.5112 0.6561
vn -0.7359 -0.4015 0.5451
vn -0.8300 -0.0843 0.5513
vn -0.8043 0.2288 0.5483
vn -0.6560 0.3850 0.6493
vn -0.5255 0.6377 0.5631
vn -0.0724 0.8304 0.5524
vn 0.2375 0.8024 0.5474
vn 0.3962 0.6584 0.6399
vn 0.6069 0.4994 0.6182
vn 0.7973 0.2547 0.5472
vn 0.8243 -0.0826 0.5601
vn 0.7368 -0.3844 0.5562
vn 0.5375 -0.6278 0.5629
vn -0.2524 -0.6476 0.7190
vn -0.6740 -0.1987 0.7115
vn -0.7024 0.0631 0.7090
vn -0.4320 0.4504 0.7813
vn -0.2172 0.6777 0.7026
vn 0.0631 0.7024 0.7090
vn 0.6873 0.1500 0.7108
vn 0.6078 -0.1784 0.7738
vn 0.5497 -0.4531 0.7018
vn 0.2884 -0.6436 0.7090
vn 0.0979 -0.5494 0.8298
vn -0.2196 -0.5123 0.8302
vn -0.4890 -0.2771 0.8271
vn -0.5421 0.0985 0.8345
vn -0.2177 0.4879 0.8453
vn 0.1148 0.5458 0.8300
vn 0.4003 0.3926 0.8280
vn 0.5333 0.1380 0.8346
vn 0.3956 -0.3815 0.8355
vn -0.0410 -0.3787 0.9246
vn -0.3318 -0.1816 0.9257
vn -0.3457 0.1887 0.9192
vn -0.0543 0.3752 0.9253
vn 0.2837 0.2802 0.9171
vn 0.3805 -0.0039 0.9248
vn 0.2644 -0.2921 0.9191
vn 0.1199 -0.1575 0.9802
vn -0.1459 -0.1402 0.9793
vn -0.1757 0.1117 0.9781
vn 0.1226 0.1526 0.9807
vn -0.0009 -0.0009 1.0000
vt 0.031300 1.000000
vt 0.018270 0.937500
vt 0.161368 0.937500
vt 0.250000 1.000000
vt 0.364162 0.937500
vt 0.437500 1.000000
vt 0.582725 0.937500
vt 0.687500 1.000000
vt 0.786088 0.937500
vt 0.843800 1.000000
vt 0.951810 0.937500
vt 0.017000 0.875000
vt 0.127391 0.875000
vt 0.251860 0.875000
vt 0.377652 0.875000
vt 0.485742 0.875000
vt 0.596154 0.875000
vt 0.720664 0.875000
vt 0.830430 0.875000
vt 0.964201 0.875000
vt 0.009929 0.787439
vt 0.095095 0.812500
vt 0.204771 0.812500
vt 0.313884 0.812500
vt 0.407684 0.812500
vt 0.517293 0.812500
vt 0.626361 0.812500
vt 0.720097 0.812500
vt 0.797826 0.812500
vt 0.876361 0.812500
vt 0.954078 0.812500
vt 1.000000 0.787439
vt 0.063511 0.750000
vt 0.135041 0.725937
vt 0.219712 0.750000
vt 0.297432 0.718280
vt 0.343700 0.718925
vt 0.391232 0.718281
vt 0.447540 0.725932
vt 0.522052 0.726101
vt 0.578733 0.718279
vt 0.635040 0.725935
vt 0.719746 0.750000
vt 0.791309 0.725934
vt 0.860075 0.750000
vt 0.938602 0.750000
vt 0.010681 0.687500
vt 0.084296 0.664183
vt 0.172387 0.687500
vt 0.234839 0.687500
vt 0.490526 0.664182
vt 0.672389 0.687500
vt 0.734888 0.687500
vt 0.828640 0.687500
vt 0.891138 0.687500
vt 0.937500 0.656369
vt 0.984888 0.687500
vt 0.000000 0.625000
vt 0.047222 0.625000
vt 0.140973 0.625000
vt 0.203422 0.625000
vt 0.260179 0.602458
vt 0.302432 0.584372
vt 0.359672 0.625000
vt 0.406300 0.593823
vt 0.453473 0.625000
vt 0.547222 0.625000
vt 0.609722 0.625000
vt 0.656300 0.593823
vt 0.703473 0.625000
vt 0.760212 0.602458
vt 0.828473 0.625000
vt 0.890972 0.625000
vt 0.984723 0.625000
vt 0.000000 0.562500
vt 0.047061 0.562500
vt 0.109560 0.562500
vt 0.156300 0.531273
vt 0.203261 0.562500
vt 0.359510 0.562500
vt 0.453311 0.562500
vt 0.510227 0.540428
vt 0.552349 0.521830
vt 0.603995 0.540428
vt 0.703311 0.562500
vt 0.797061 0.562500
vt 0.859562 0.562500
vt 0.922061 0.562500
vt 0.984562 0.562500
vt 0.000000 0.500000
vt 0.046901 0.500000
vt 0.109400 0.500000
vt 0.203099 0.500000
vt 0.265599 0.500000
vt 0.328100 0.500000
vt 0.390650 0.500000
vt 0.453150 0.500000
vt 0.640650 0.500000
vt 0.703150 0.500000
vt 0.760184 0.478171
vt 0.802305 0.459571
vt 0.859401 0.500000
vt 0.921901 0.500000
vt 0.984401 0.500000
vt 0.000000 0.437500
vt 0.046740 0.437500
vt 0.109238 0.437500
vt 0.156300 0.406179
vt 0.202939 0.437500
vt 0.265439 0.437500
vt 0.327939 0.437500
vt 0.390489 0.437500
vt 0.452989 0.437500
vt 0.515488 0.437500
vt 0.572219 0.397867
vt 0.609240 0.437500
vt 0.646088 0.397542
vt 0.702988 0.437500
vt 0.859240 0.437500
vt 0.921739 0.437500
vt 0.984240 0.437500
vt 0.000000 0.375000
vt 0.041142 0.352764
vt 0.109078 0.375000
vt 0.202778 0.375000
vt 0.265278 0.375000
vt 0.327777 0.375000
vt 0.390327 0.375000
vt 0.447374 0.352762
vt 0.515327 0.375000
vt 0.702828 0.375000
vt 0.765327 0.375000
vt 0.827827 0.375000
vt 0.890326 0.375000
vt 0.937500 0.343630
vt 0.984079 0.375000
vt 0.000000 0.289408
vt 0.077661 0.312500
vt 0.134247 0.273898
vt 0.171411 0.312500
vt 0.233860 0.312500
vt 0.296358 0.312500
vt 0.333691 0.274067
vt 0.390161 0.312500
vt 0.483912 0.312500
vt 0.546410 0.312500
vt 0.583759 0.274066
vt 0.640067 0.281721
vt 0.702660 0.312500
vt 0.765161 0.312500
vt 0.827660 0.312500
vt 0.890159 0.312500
vt 0.989856 0.289408
vt 0.061463 0.250000
vt 0.202425 0.250000
vt 0.264923 0.250000
vt 0.374926 0.220192
vt 0.452472 0.250000
vt 0.514971 0.250000
vt 0.717698 0.250000
vt 0.796103 0.219050
vt 0.858723 0.250000
vt 0.936554 0.250000
vt 0.000000 0.187500
vt 0.061117 0.187500
vt 0.170230 0.187500
vt 0.279905 0.187500
vt 0.436206 0.187500
vt 0.529940 0.187500
vt 0.623619 0.187500
vt 0.717351 0.187500
vt 0.873618 0.187500
vt 0.967350 0.187500
vt 0.022095 0.125000
vt 0.169117 0.125000
vt 0.325818 0.125000
vt 0.481756 0.125000
vt 0.623019 0.125000
vt 0.747368 0.125000
vt 0.888368 0.125000
vt 0.983056 0.125000
vt 0.013039 0.062500
vt 0.135838 0.062500
vt 0.338634 0.062500
vt 0.604380 0.062500
vt 0.898238 0.062500
vt 0.031300 -0.000000
vt 0.218700 -0.000000
vt 0.437500 -0.000000
vt 0.750000 -0.000000
s 1
usemtl Material.001
f 1/1/1 6/2/2 2/3/3
f 1/4/1 2/3/3 3/5/4
f 1/6/1 3/5/4 4/7/5
f 1/8/1 4/7/5 5/9/6
f 1/10/1 5/9/6 6/11/2
f 6/2/2 7/12/7 8/13/8
f 6/2/2 8/13/8 2/3/3
f 2/3/3 8/13/8 9/14/9
f 2/3/3 9/14/9 3/5/4
f 3/5/4 9/14/9 10/15/10
f 3/5/4 10/15/10 11/16/11
f 3/5/4 11/16/11 4/7/5
f 4/7/5 11/16/11 12/17/12
f 4/7/5 12/17/12 13/18/13
f 4/7/5 13/18/13 5/9/6
f 5/9/6 13/18/13 14/19/14
f 5/9/6 14/19/14 6/11/2
f 6/11/2 14/19/14 7/20/7
f 7/12/7 15/21/15 16/22/16
f 7/12/7 16/22/16 8/13/8
f 8/13/8 16/22/16 17/23/17
f 8/13/8 17/23/17 9/14/9
f 9/14/9 17/23/17 18/24/18
f 9/14/9 18/24/18 10/15/10
f 10/15/10 18/24/18 19/25/19
f 10/15/10 19/25/19 20/26/20
f 10/15/10 20/26/20 11/16/11
f 11/16/11 20/26/20 12/17/12
f 12/17/12 20/26/20 21/27/21
f 12/17/12 21/27/21 22/28/22
f 12/17/12 22/28/22 13/18/13
f 13/18/13 22/28/22 23/29/23
f 13/18/13 23/29/23 14/19/14
f 14/19/14 23/29/23 24/30/24
f 14/19/14 24/30/24 7/20/7
f 7/20/7 24/30/24 25/31/25
f 7/20/7 25/31/25 15/32/15
f 15/21/15 26/33/26 16/22/16
f 16/22/16 26/33/26 27/34/27
f 16/22/16 27/34/27 17/23/17
f 17/23/17 27/34/27 28/35/28
f 17/23/17 28/35/28 29/36/29
f 17/23/17 29/36/29 18/24/18
f 18/24/18 29/36/29 30/37/30
f 18/24/18 30/37/30 31/38/31
f 18/24/18 31/38/31 19/25/19
f 19/25/19 31/38/31 32/39/32
f 19/25/19 32/39/32 20/26/20
f 20/26/20 32/39/32 33/40/33
f 20/26/20 33/40/33 34/41/34
f 20/26/20 34/41/34 21/27/21
f 21/27/21 34/41/34 35/42/35
f 21/27/21 35/42/35 36/43/36
f 21/27/21 36/43/36 22/28/22
f 22/28/22 36/43/36 37/44/37
f 22/28/22 37/44/37 23/29/23
f 23/29/23 37/44/37 38/45/38
f 23/29/23 38/45/38 24/30/24
f 24/30/24 38/45/38 39/46/39
f 24/30/24 39/46/39 25/31/25
f 25/31/25 39/46/39 15/32/15
f 15/21/15 40/47/40 26/33/26
f 26/33/26 40/47/40 41/48/41
f 26/33/26 41/48/41 27/34/27
f 27/34/27 42/49/42 28/35/28
f 28/35/28 42/49/42 43/50/43
f 28/35/28 43/50/43 29/36/29
f 32/39/32 44/51/44 33/40/33
f 35/42/35 45/52/45 36/43/36
f 36/43/36 45/52/45 46/53/46
f 36/43/36 46/53/46 37/44/37
f 37/44/37 47/54/47 38/45/38
f 38/45/38 47/54/47 48/55/48
f 38/45/38 48/55/48 39/46/39
f 39/46/39 48/55/48 49/56/49
f 39/46/39 49/56/49 40/57/40
f 39/46/39 40/57/40 15/32/15
f 40/47/40 50/58/50 51/59/51
f 40/47/40 51/59/51 41/48/41
f 41/48/41 52/60/52 27/34/27
f 27/34/27 52/60/52 42/49/42
f 42/49/42 52/60/52 53/61/53
f 42/49/42 53/61/53 43/50/43
f 43/50/43 53/61/53 54/62/54
f 43/50/43 54/62/54 29/36/29
f 29/36/29 54/62/54 55/63/55
f 29/36/29 55/63/55 56/64/56
f 29/36/29 56/64/56 30/37/30
f 30/37/30 56/64/56 31/38/31
f 31/38/31 56/64/56 57/65/57
f 31/38/31 57/65/57 58/66/58
f 31/38/31 58/66/58 32/39/32
f 32/39/32 58/66/58 44/51/44
f 44/51/44 59/67/59 33/40/33
f 33/40/33 59/67/59 34/41/34
f 34/41/34 59/67/59 60/68/60
f 34/41/34 60/68/60 35/42/35
f 35/42/35 60/68/60 61/69/61
f 35/42/35 61/69/61 45/52/45
f 45/52/45 61/69/61 62/70/62
f 45/52/45 62/70/62 46/53/46
f 46/53/46 62/70/62 63/71/63
f 46/53/46 63/71/63 37/44/37
f 37/44/37 63/71/63 64/72/64
f 37/44/37 64/72/64 47/54/47
f 47/54/47 64/72/64 65/73/65
f 47/54/47 65/73/65 48/55/48
f 48/55/48 65/73/65 49/56/49
f 49/56/49 50/74/50 40/57/40
f 50/58/50 66/75/66 67/76/67
f 50/58/50 67/76/67 51/59/51
f 51/59/51 67/76/67 68/77/68
f 51/59/51 68/77/68 41/48/41
f 41/48/41 68/77/68 52/60/52
f 52/60/52 68/77/68 69/78/69
f 52/60/52 69/78/69 70/79/70
f 52/60/52 70/79/70 53/61/53
f 53/61/53 70/79/70 54/62/54
f 55/63/55 71/80/71 56/64/56
f 56/64/56 71/80/71 57/65/57
f 57/65/57 72/81/72 58/66/58
f 58/66/58 72/81/72 73/82/73
f 58/66/58 73/82/73 44/51/44
f 44/51/44 73/82/73 59/67/59
f 59/67/59 73/82/73 74/83/74
f 59/67/59 74/83/74 75/84/75
f 59/67/59 75/84/75 60/68/60
f 60/68/60 75/84/75 61/69/61
f 61/69/61 76/85/76 62/70/62
f 62/70/62 76/85/76 63/71/63
f 63/71/63 77/86/77 64/72/64
f 64/72/64 77/86/77 78/87/78
f 64/72/64 78/87/78 65/73/65
f 65/73/65 78/87/78 79/88/79
f 65/73/65 79/88/79 49/56/49
f 49/56/49 79/88/79 66/89/66
f 49/56/49 66/89/66 50/74/50
f 66/75/66 80/90/80 81/91/81
f 66/75/66 81/91/81 67/76/67
f 67/76/67 81/91/81 82/92/82
f 67/76/67 82/92/82 68/77/68
f 68/77/68 82/92/82 69/78/69
f 69/78/69 83/93/83 70/79/70
f 70/79/70 83/93/83 84/94/84
f 70/79/70 84/94/84 54/62/54
f 54/62/54 84/94/84 55/63/55
f 55/63/55 84/94/84 85/95/85
f 55/63/55 85/95/85 71/80/71
f 71/80/71 85/95/85 86/96/86
f 71/80/71 86/96/86 57/65/57
f 57/65/57 86/96/86 87/97/87
f 57/65/57 87/97/87 72/81/72
f 72/81/72 87/97/87 73/82/73
f 75/84/75 88/98/88 61/69/61
f 61/69/61 88/98/88 89/99/89
f 61/69/61 89/99/89 76/85/76
f 76/85/76 89/99/89 90/100/90
f 76/85/76 90/100/90 63/71/63
f 63/71/63 90/100/90 77/86/77
f 77/86/77 90/100/90 91/101/91
f 77/86/77 91/101/91 92/102/92
f 77/86/77 92/102/92 78/87/78
f 78/87/78 92/102/92 93/103/93
f 78/87/78 93/103/93 79/88/79
f 79/88/79 93/103/93 80/104/80
f 79/88/79 80/104/80 66/89/66
f 80/90/80 94/105/94 95/106/95
f 80/90/80 95/106/95 81/91/81
f 81/91/81 95/106/95 96/107/96
f 81/91/81 96/107/96 82/92/82
f 82/92/82 96/107/96 97/108/97
f 82/92/82 97/108/97 69/78/69
f 69/78/69 97/108/97 98/109/98
f 69/78/69 98/109/98 83/93/83
f 83/93/83 98/109/98 99/110/99
f 83/93/83 99/110/99 84/94/84
f 84/94/84 99/110/99 100/111/100
f 84/94/84 100/111/100 85/95/85
f 85/95/85 100/111/100 101/112/101
f 85/95/85 101/112/101 86/96/86
f 86/96/86 101/112/101 102/113/102
f 86/96/86 102/113/102 87/97/87
f 87/97/87 102/113/102 103/114/103
f 87/97/87 103/114/103 73/82/73
f 73/82/73 103/114/103 74/83/74
f 74/83/74 103/114/103 104/115/104
f 74/83/74 104/115/104 105/116/105
f 74/83/74 105/116/105 75/84/75
f 75/84/75 105/116/105 88/98/88
f 88/98/88 105/116/105 106/117/106
f 88/98/88 106/117/106 107/118/107
f 88/98/88 107/118/107 89/99/89
f 89/99/89 107/118/107 90/100/90
f 91/101/91 108/119/108 92/102/92
f 92/102/92 108/119/108 109/120/109
f 92/102/92 109/120/109 93/103/93
f 93/103/93 109/120/109 94/121/94
f 93/103/93 94/121/94 80/104/80
f 94/105/94 110/122/110 111/123/111
f 94/105/94 111/123/111 95/106/95
f 95/106/95 111/123/111 112/124/112
f 95/106/95 112/124/112 96/107/96
f 96/107/96 112/124/112 97/108/97
f 97/108/97 113/125/113 98/109/98
f 98/109/98 113/125/113 114/126/114
f 98/109/98 114/126/114 99/110/99
f 99/110/99 114/126/114 115/127/115
f 99/110/99 115/127/115 100/111/100
f 100/111/100 115/127/115 116/128/116
f 100/111/100 116/128/116 101/112/101
f 101/112/101 116/128/116 117/129/117
f 101/112/101 117/129/117 102/113/102
f 102/113/102 117/129/117 118/130/118
f 102/113/102 118/130/118 103/114/103
f 103/114/103 118/130/118 104/115/104
f 105/116/105 104/115/104 106/117/106
f 106/117/106 119/131/119 107/118/107
f 107/118/107 119/131/119 120/132/120
f 107/118/107 120/132/120 90/100/90
f 90/100/90 120/132/120 91/101/91
f 91/101/91 120/132/120 121/133/121
f 91/101/91 121/133/121 108/119/108
f 108/119/108 121/133/121 122/134/122
f 108/119/108 122/134/122 109/120/109
f 109/120/109 122/134/122 123/135/123
f 109/120/109 123/135/123 110/136/110
f 109/120/109 110/136/110 94/121/94
f 110/122/110 124/137/124 111/123/111
f 111/123/111 125/138/125 112/124/112
f 112/124/112 125/138/125 126/139/126
f 112/124/112 126/139/126 127/140/127
f 112/124/112 127/140/127 97/108/97
f 97/108/97 127/140/127 113/125/113
f 113/125/113 127/140/127 128/141/128
f 113/125/113 128/141/128 114/126/114
f 114/126/114 128/141/128 129/142/129
f 114/126/114 129/142/129 115/127/115
f 115/127/115 129/142/129 130/143/130
f 115/127/115 130/143/130 131/144/131
f 115/127/115 131/144/131 116/128/116
f 116/128/116 131/144/131 117/129/117
f 117/129/117 132/145/132 118/130/118
f 118/130/118 132/145/132 133/146/133
f 118/130/118 133/146/133 104/115/104
f 104/115/104 133/146/133 134/147/134
f 104/115/104 134/147/134 135/148/135
f 104/115/104 135/148/135 106/117/106
f 106/117/106 135/148/135 136/149/136
f 106/117/106 136/149/136 119/131/119
f 119/131/119 136/149/136 137/150/137
f 119/131/119 137/150/137 120/132/120
f 120/132/120 137/150/137 138/151/138
f 120/132/120 138/151/138 121/133/121
f 121/133/121 138/151/138 139/152/139
f 121/133/121 139/152/139 122/134/122
f 122/134/122 139/152/139 123/135/123
f 123/135/123 124/153/124 110/136/110
f 124/137/124 140/154/140 111/123/111
f 111/123/111 140/154/140 125/138/125
f 125/138/125 140/154/140 126/139/126
f 127/140/127 126/139/126 141/155/141
f 127/140/127 141/155/141 128/141/128
f 128/141/128 141/155/141 142/156/142
f 128/141/128 142/156/142 129/142/129
f 129/142/129 142/156/142 130/143/130
f 130/143/130 143/157/143 131/144/131
f 131/144/131 143/157/143 144/158/144
f 131/144/131 144/158/144 117/129/117
f 117/129/117 144/158/144 132/145/132
f 132/145/132 144/158/144 145/159/145
f 132/145/132 145/159/145 133/146/133
f 133/146/133 145/159/145 134/147/134
f 135/148/135 146/160/146 136/149/136
f 136/149/136 146/160/146 137/150/137
f 137/150/137 146/160/146 147/161/147
f 137/150/137 147/161/147 138/151/138
f 138/151/138 147/161/147 148/162/148
f 138/151/138 148/162/148 139/152/139
f 139/152/139 148/162/148 149/163/149
f 139/152/139 149/163/149 123/135/123
f 123/135/123 149/163/149 124/153/124
f 124/137/124 150/164/150 151/165/151
f 124/137/124 151/165/151 140/154/140
f 140/154/140 151/165/151 152/166/152
f 140/154/140 152/166/152 126/139/126
f 126/139/126 152/166/152 141/155/141
f 141/155/141 152/166/152 153/167/153
f 141/155/141 153/167/153 142/156/142
f 142/156/142 153/167/153 130/143/130
f 130/143/130 153/167/153 143/157/143
f 143/157/143 154/168/154 144/158/144
f 144/158/144 154/168/154 155/169/155
f 144/158/144 155/169/155 145/159/145
f 145/159/145 155/169/155 134/147/134
f 134/147/134 155/169/155 156/170/156
f 134/147/134 156/170/156 135/148/135
f 135/148/135 156/170/156 157/171/157
f 135/148/135 157/171/157 146/160/146
f 146/160/146 157/171/157 147/161/147
f 147/161/147 158/172/158 148/162/148
f 148/162/148 158/172/158 149/163/149
f 149/163/149 158/172/158 150/173/150
f 149/163/149 150/173/150 124/153/124
f 150/164/150 159/174/159 151/165/151
f 151/165/151 159/174/159 160/175/160
f 151/165/151 160/175/160 152/166/152
f 152/166/152 160/175/160 153/167/153
f 153/167/153 160/175/160 161/176/161
f 153/167/153 161/176/161 143/157/143
f 143/157/143 161/176/161 162/177/162
f 143/157/143 162/177/162 154/168/154
f 154/168/154 162/177/162 155/169/155
f 155/169/155 162/177/162 163/178/163
f 155/169/155 163/178/163 156/170/156
f 156/170/156 163/178/163 164/179/164
f 156/170/156 164/179/164 157/171/157
f 157/171/157 164/179/164 147/161/147
f 147/161/147 164/179/164 165/180/165
f 147/161/147 165/180/165 158/172/158
f 158/172/158 165/180/165 150/173/150
f 150/173/150 165/180/165 159/181/159
f 159/174/159 169/182/166 166/183/167
f 159/174/159 166/183/167 160/175/160
f 160/175/160 166/183/167 167/184/168
f 160/175/160 167/184/168 161/176/161
f 161/176/161 167/184/168 162/177/162
f 162/177/162 167/184/168 168/185/169
f 162/177/162 168/185/169 163/178/163
f 163/178/163 168/185/169 164/179/164
f 164/179/164 168/185/169 169/186/166
f 164/179/164 169/186/166 165/180/165
f 165/180/165 169/186/166 159/181/159
f 170/187/170 166/183/167 169/182/166
f 170/188/170 167/184/168 166/183/167
f 170/189/170 168/185/169 167/184/168
f 170/190/170 169/186/166 168/185/169
